<svg width="32" height="32" viewBox="0 0 32 32" xmlns="http://www.w3.org/2000/svg"><title>favicon</title><g transform="translate(2.846 .083)" fill="#465353" fill-rule="evenodd"><path d="M15.426 4.447a12.647 12.647 0 0 0-6.879-.156 12.398 12.398 0 0 0-5.684 3.216l-1.13-4.215L14.22-.054l1.206 4.501zm5.187 19.36L21.9 28.61 9.414 31.956l-1.34-4.998c2.149.64 4.502.724 6.823.125a12.28 12.28 0 0 0 5.716-3.277zm3.374-8.386a11.33 11.33 0 0 0-.414-2.787 11.492 11.492 0 0 0-.802-2.077l2.073-.535 1.346 4.832-2.203.567z"/><path d="M8.745 5.007C14.86 3.43 21.19 6.945 22.827 12.826c1.637 5.88-2.016 11.966-8.13 13.542C8.582 27.944 2.229 24.47.58 18.558-1.066 12.644 2.597 6.59 8.745 5.006zm.709 2.543C4.76 8.759 2.01 13.386 3.259 17.868c1.25 4.483 6.069 7.16 10.73 5.958 4.693-1.21 7.443-5.836 6.194-10.319-1.25-4.482-6.07-7.158-10.73-5.957z"/><path d="M16.1489148 15.0909511L16.5098078 16.3862898 11.5520659 17.6638862 9.42656087 10.0348974 10.748643 9.69420052 12.513255 16.0278505z"/></g></svg>