<svg width="300" height="120" viewBox="0 0 300 120" xmlns="http://www.w3.org/2000/svg"><title>logo</title><g fill="none" fill-rule="evenodd"><g transform="translate(7.466 8.759)"><path d="M45.959 13.771a36.608 36.608 0 0 0-20.271-.362 36.928 36.928 0 0 0-17.295 10.27L4.751 10.087 42.277.032l3.682 13.74zm16.188 60.415l4.132 15.421-37.526 10.055-4.1-15.303a36.857 36.857 0 0 0 20.12.277 36.605 36.605 0 0 0 17.374-10.45zm9.945-25.994a36.716 36.716 0 0 0-1.245-8.71 36.792 36.792 0 0 0-2.412-6.492l6.233-1.67 4.045 15.098-6.62 1.774z" fill="#465353"/><path d="M26.284 15.646c18.377-4.924 37.398 6.058 42.322 24.435 4.92 18.374-6.059 37.394-24.436 42.318C25.793 87.324 6.7 76.47 1.747 57.991c-4.95-18.474 6.06-37.394 24.537-42.345z" fill="#465353"/><path d="M28.413 23.593C14.308 27.372 6.042 41.83 9.796 55.839c3.753 14.008 18.238 22.371 32.246 18.617 14.105-3.779 22.37-18.238 18.617-32.246-3.757-14.007-18.242-22.37-32.246-18.617z" fill="#FFF"/><path fill="#465353" d="M48.5345102 47.1592223L49.6191507 51.2071557 34.7189807 55.1996442 28.3309139 31.3590544 32.3043455 30.2943766 37.6077718 50.087033z"/></g><g transform="translate(102.498 10)" fill="#465353"><path d="M30.912 87.148c0 .576.048 1.248.096 1.824h3.216v7.488h-8.928c-2.016 0-2.736-.336-3.312-.912-.72-.72-1.104-1.92-1.296-7.536-.096-2.496-.24-3.12-.72-3.6-.432-.432-1.008-.624-2.64-.624h-3.456v5.184h3.648v7.488H.48v-7.488h3.552V70.348H.48V62.86h22.896c2.88 0 4.752.48 6.048 1.776 1.488 1.488 1.968 3.36 1.968 7.536 0 5.952-1.584 7.392-5.472 8.16v.096c3.36.768 4.944 1.872 4.992 6.72zm-17.04-10.272h4.416c1.392 0 1.92-.096 2.208-.384.432-.48.528-1.2.528-2.928s-.096-2.448-.528-2.928c-.288-.288-.816-.384-2.208-.384h-4.416v6.624zm46.74 7.968H46.356c0 3.648.192 4.416.48 4.704.336.336.96.432 2.448.432h1.584c1.824 0 2.256-.048 2.544-.432.192-.24.288-1.104.288-2.592h8.448c0 3.888-.48 6.432-1.776 7.728-.816.816-1.872 1.776-5.184 1.776H45.156c-2.832 0-4.128-.432-5.376-1.728-1.776-1.824-2.592-3.936-2.592-11.712s.816-9.888 2.592-11.712c1.2-1.296 2.544-1.728 5.376-1.728h9.552c2.832 0 4.128.432 5.376 1.728 1.776 1.824 2.064 4.08 2.064 11.664v.336c0 1.152-.24 1.536-1.536 1.536zm-13.776-8.352c-.336.336-.48 1.056-.48 4.224h6.912c0-2.784-.192-3.936-.432-4.224-.288-.336-.672-.432-2.16-.432h-1.392c-1.488 0-2.112.096-2.448.432zm37.956 12.816v6.096l-2.304.528c-1.584.384-4.08.72-6.768.72-3.216 0-4.56-.768-5.472-1.68-.864-.864-1.344-2.112-1.344-5.472V76.732h-3.312V69.58h3.312v-6.72h9.504v6.72h6.432v7.152h-6.432v10.416c0 1.056.096 1.536.384 1.824.24.24.72.336 1.92.336h4.08zm6.42-22.992V59.02h9.552v7.296h-9.552zm13.2 30.144H88.476v-7.152h3.216V76.732h-3.216V69.58h12.72v19.824h3.216v7.056zm15.876-7.152h3.12v7.152h-15.696v-7.152h3.072V76.732h-3.072V69.58h12.576v4.368c2.88-3.072 4.272-4.368 6.48-4.368h2.112v9.168h-2.688c-2.112 0-3.648.192-5.904 1.152v9.408zm35.364-4.464h-14.256c0 3.648.192 4.416.48 4.704.336.336.96.432 2.448.432h1.584c1.824 0 2.256-.048 2.544-.432.192-.24.288-1.104.288-2.592h8.448c0 3.888-.48 6.432-1.776 7.728-.816.816-1.872 1.776-5.184 1.776h-10.032c-2.832 0-4.128-.432-5.376-1.728-1.776-1.824-2.592-3.936-2.592-11.712s.816-9.888 2.592-11.712c1.2-1.296 2.544-1.728 5.376-1.728h9.552c2.832 0 4.128.432 5.376 1.728 1.776 1.824 2.064 4.08 2.064 11.664v.336c0 1.152-.24 1.536-1.536 1.536zm-13.776-8.352c-.336.336-.48 1.056-.48 4.224h6.912c0-2.784-.192-3.936-.432-4.224-.288-.336-.672-.432-2.16-.432h-1.392c-1.488 0-2.112.096-2.448.432zm19.14-2.256c-.048-6.144.576-8.4 2.016-9.84 1.056-1.056 2.832-1.536 5.952-1.536h10.032c2.544 0 4.176.624 5.088 1.632 1.536 1.536 2.208 4.224 2.064 8.496-.096 3.024-.384 4.704-2.448 6.336-1.584 1.296-3.552 1.776-5.52 2.736-.96.48-1.296.768-1.632 1.104-.288.288-.624.816-.768 1.776h-7.44v-.912c.048-3.6.144-4.896 1.248-6 1.008-1.008 2.352-1.584 3.648-2.16 1.488-.672 2.352-1.056 2.784-1.488.48-.48.48-1.056.48-2.064s-.096-1.44-.336-1.68c-.24-.24-.72-.288-1.872-.288h-1.68c-1.248 0-1.728.096-2.016.384-.288.288-.48 1.296-.48 3.504h-9.12zm6.576 13.344h8.88v8.88h-8.88v-8.88zM4.858 42.561H9.17c.616 0 .836-.022.968-.154.198-.198.286-.594.286-2.024 0-1.408-.088-1.76-.286-1.958-.11-.11-.33-.176-.968-.176H4.858v4.312zm0 2.024v4.884h4.444c.616 0 .836-.044.968-.176.176-.176.286-.55.286-2.222 0-1.738-.11-2.134-.308-2.332-.11-.11-.286-.154-.946-.154H4.858zm6.006-.99c1.606.286 2.2 1.1 2.2 3.454 0 2.53-.33 3.234-.924 3.828-.462.462-1.254.682-2.244.682H.48v-2.09h2.068V38.25H.48v-2.09h9.394c1.012 0 1.738.176 2.2.638.594.594.858 1.364.858 3.608 0 2.134-.704 2.772-2.068 3.146v.044zm9.876-5.346h-2.068v-2.09h12.056v4.642h-2.31V38.25h-5.324v4.312h4.136v2.024h-4.136v4.884h5.5v-2.882h2.31v4.972H18.672v-2.09h2.068V38.25zm17.62 0h-2.068v-2.09h11.88v4.642h-2.31V38.25h-5.148v4.51h3.96v2.024h-3.96v4.686h2.222v2.09h-6.644v-2.09h2.068V38.25zm18.896-2.09h5.016c1.32 0 1.826.154 2.288.616.77.77 1.056 1.892 1.056 7.084s-.286 6.314-1.056 7.084c-.462.462-.968.616-2.288.616h-5.016c-1.32 0-1.826-.154-2.288-.616-.77-.77-1.056-1.892-1.056-7.084s.286-6.314 1.056-7.084c.462-.462.968-.616 2.288-.616zm-.792 7.7c0 4.444.088 5.082.308 5.302.154.154.308.198.99.198h4.004c.682 0 .836-.044.99-.198.22-.22.308-.858.308-5.302s-.088-5.082-.308-5.302c-.154-.154-.308-.198-.99-.198h-4.004c-.682 0-.836.044-.99.198-.22.22-.308.858-.308 5.302zm27.146 3.3c.022.682.066 1.584.11 2.266h1.76v2.134h-2.222c-.924 0-1.254-.154-1.518-.418-.33-.33-.506-.924-.594-3.96-.044-1.232-.198-1.628-.484-1.914-.352-.352-.726-.418-1.496-.418H75.91v4.62h2.112v2.09h-6.534v-2.09h2.068V38.25h-2.068v-2.09h9.35c1.012 0 1.694.176 2.156.638.594.594.836 1.342.836 3.652 0 2.706-.638 3.256-2.398 3.498v.044c1.628.308 2.09.924 2.178 3.168zm-7.7-4.29h4.158c.638 0 .858-.066.968-.176.198-.198.286-.528.286-2.112s-.088-1.958-.286-2.156c-.11-.11-.33-.176-.968-.176H75.91v4.62zm16.322-4.62h-2.068v-2.09h12.056v4.642h-2.31V38.25h-5.324v4.312h4.136v2.024h-4.136v4.884h5.5v-2.882h2.31v4.972H90.164v-2.09h2.068V38.25zm29.3 11.22h2.156v2.09h-6.666v-2.09h2.156V38.25h-2.156v-2.09h6.666v2.09h-2.156v11.22zM23.93 5.71v13.58h2.59v5.46H14.48v-5.46h2.275v-4.34h-6.51v4.34h2.275v5.46H.48v-5.46h2.59V5.709H.48V.249h12.04v5.46h-2.275v4.025h6.51V5.709H14.48V.249h12.04v5.46h-2.59zm11.505 19.04c-2.065 0-3.01-.315-3.92-1.26-1.295-1.33-1.89-3.325-1.89-8.54 0-5.215.595-7.21 1.89-8.54.875-.945 1.855-1.26 3.92-1.26h7.14c2.065 0 3.01.315 3.92 1.26 1.295 1.33 1.89 3.325 1.89 8.54 0 5.25-.595 7.21-1.89 8.54-.91.945-1.855 1.26-3.92 1.26h-7.14zm1.015-9.8c0 3.43.14 4.13.35 4.375.21.28.49.315 1.225.315h1.96c.735 0 1.015-.07 1.225-.315.21-.245.35-.945.35-4.375s-.14-4.13-.35-4.375c-.21-.245-.49-.315-1.225-.315h-1.96c-.735 0-1.015.035-1.225.315-.21.245-.35.945-.35 4.375zm31.805-9.87c1.33 0 2.03.28 2.345 1.61l2.625 11.2h.315l1.155-7.525H73.33V5.149h9.555v5.215h-1.61l-3.29 12.845c-.35 1.365-1.015 1.61-2.345 1.61h-4.585c-1.33 0-2.065-.28-2.345-1.61l-1.785-8.47h-.315l-1.785 8.47c-.28 1.33-1.015 1.61-2.345 1.61h-4.585c-1.33 0-1.995-.245-2.345-1.61l-3.29-12.845h-1.61V5.149h9.87v5.215h-1.365l1.155 7.525h.315l2.625-11.2c.315-1.33 1.015-1.61 2.345-1.61h2.66zm29.24 14.21V5.709h-2.59V.249h12.53v5.46h-2.765v13.65h5.355v-4.13h6.125v9.52H94.905v-5.46h2.59zm27.535 5.46c-2.065 0-3.01-.315-3.92-1.26-1.295-1.33-1.89-3.325-1.89-8.54 0-5.215.595-7.21 1.89-8.54.875-.945 1.855-1.26 3.92-1.26h7.14c2.065 0 3.01.315 3.92 1.26 1.295 1.33 1.89 3.325 1.89 8.54 0 5.25-.595 7.21-1.89 8.54-.91.945-1.855 1.26-3.92 1.26h-7.14zm1.015-9.8c0 3.43.14 4.13.35 4.375.21.28.49.315 1.225.315h1.96c.735 0 1.015-.07 1.225-.315.21-.245.35-.945.35-4.375s-.14-4.13-.35-4.375c-.21-.245-.49-.315-1.225-.315h-1.96c-.735 0-1.015.035-1.225.315-.21.245-.35.945-.35 4.375zm24.385-9.8v2.905c2.52-2.555 3.325-2.94 5.32-2.94h1.12c1.68 0 2.87.315 3.64 1.085.84.84 1.12 1.96 1.12 4.97v8.365h2.135v5.215h-10.43v-5.145h1.365v-7.49c0-.735-.105-1.085-.35-1.33-.245-.245-.56-.35-1.225-.35h-.175c-.665 0-1.33.105-2.52.49v8.68h1.365v5.145H141.26v-5.215h2.24v-9.17h-2.24V5.149h9.17zm20.745 25.55c-1.61 0-2.45-.35-3.08-.98-.735-.735-1.015-1.82-1.015-4.97h6.125c0 .525.035.84.21 1.015.21.21.525.245 1.12.245h2.24c.595 0 .945-.07 1.155-.28.245-.245.315-.56.315-2.1v-2.625c-2.415 2.31-3.29 2.52-4.935 2.52h-1.12c-2.065 0-3.185-.315-4.095-1.225-1.26-1.26-1.68-3.29-1.68-7.98s.63-6.615 1.96-7.945c.91-.91 2.135-1.26 3.955-1.26h1.295c1.645 0 2.66.35 4.62 2.1V5.149h9.17v5.215h-2.24v14.28c0 3.01-.28 4.13-1.12 4.97-.77.77-1.96 1.085-3.64 1.085h-9.24zm2.065-16.24c0 2.59.14 3.29.56 3.71.315.315.77.42 1.575.42h.63c.665 0 1.365-.14 2.24-.49v-7.35c-.77-.28-1.435-.42-2.065-.42h-.805c-.805 0-1.26.105-1.575.42-.42.42-.56 1.155-.56 3.71z"/></g></g></svg>