<svg width="100" height="100" viewBox="0 0 100 100" xmlns="http://www.w3.org/2000/svg"><title>Close</title><path d="M72.339 78.774c-.742.742-1.273.778-2.51-.46L50 58.485 30.207 78.28c-.99.99-1.98 2.475-3.465.99l-5.516-5.516c-1.237-1.237-.247-2.722.248-3.217l20.288-20.289L21.933 30.42c-.247-.248-1.732-1.733-.495-2.97l5.763-5.763c.99-.99 2.228-.743 2.97 0l20.076 20.076 20.289-20.288c1.237-1.238 1.98-1.485 3.217-.248l5.268 5.268c1.485 1.485.743 2.228-.247 3.218L58.485 50l19.83 19.829c1.484 1.485.494 2.475.247 2.722l-6.223 6.223z" fill="#336399" /></svg>
