<svg width="100" height="100" viewBox="0 0 100 100" xmlns="http://www.w3.org/2000/svg"><title>twitter</title><path d="M50 100C22.386 100 0 77.614 0 50S22.386 0 50 0s50 22.386 50 50-22.386 50-50 50zm16.467-74.673c-7.344 0-13.3 6.255-13.3 13.971 0 1.093.116 2.163.344 3.182-11.056-.581-20.857-6.143-27.415-14.595a14.428 14.428 0 0 0-1.802 7.026c0 4.845 2.349 9.123 5.918 11.627a12.77 12.77 0 0 1-6.026-1.744v.174c0 6.767 4.584 12.413 10.669 13.696-1.955.558-4.014.64-6.007.24 1.694 5.55 6.608 9.588 12.425 9.704A25.896 25.896 0 0 1 21.58 74.39a36.348 36.348 0 0 0 20.39 6.279c24.465 0 37.847-21.288 37.847-39.75 0-.605-.016-1.21-.039-1.807a27.845 27.845 0 0 0 6.635-7.231 25.628 25.628 0 0 1-7.639 2.197 13.905 13.905 0 0 0 5.848-7.728 25.85 25.85 0 0 1-8.448 3.391 12.994 12.994 0 0 0-9.708-4.414z" fill="#1da1f2" fill-rule="evenodd"/></svg>
